# xmcd
# Copyright (C) 1995-1998 Ti Kan
#
# Track frame offsets:
#       150
#       16200
#       35475
#       49050
#       64950
#       84525
#       103875
#       120900
#       139650
#       157500
#       174375
#       191100
#       208425
#       222300
#       239925
#       258075
#       272625
#
# Disc length: 3869 seconds
#
# Revision: 0
# Processed by: cddbd v1.5.2PL0 Copyright (c) Steve Scherf et al.
# Submitted via: CD-Transfer v1.0
#
DISCID=f60f1b11
DTITLE=Euro Express - 
DYEAR=08
DGENRE=
TTITLE0=I Can Feel You
TTITLE1=Will My Arms Be Strong Enough
TTITLE2=Bruised Water
TTITLE3=You Make It Real
TTITLE4=Need U Bad (Remix)
TTITLE5=If You're Out There
TTITLE6=Walking On Air
TTITLE7=Thriller Megamix (Radio Edit)
TTITLE8=Un Passo Indietro
TTITLE9=Far Away (Re-Issue)
TTITLE10=Cuddle Up
TTITLE11=Whatcha Think About You (Album Vers.)
TTITLE12=Adieu Haiti
TTITLE13=Disturbia (Craig C's Master Radio Mix)
TTITLE14=Lo Que Quiero, Lo Que Soy
TTITLE15=Girls
TTITLE16=One More Chance (Re-Issue)
EXTD=
EXTT0=
EXTT1=
EXTT2=
EXTT3=
EXTT4=
EXTT5=
EXTT6=
EXTT7=
EXTT8=
EXTT9=
EXTT10=
EXTT11=
EXTT12=
EXTT13=
EXTT14=
EXTT15=
EXTT16=
PLAYORDER=
